<svg width="12" height="12" viewBox="0 0 12 12" fill="none" xmlns="http://www.w3.org/2000/svg">
<path d="M1.07003 1.15344L1.1187 1.09744C1.20335 1.01277 1.31559 0.961281 1.435 0.95235C1.5544 0.943419 1.67305 0.977635 1.76936 1.04878L1.82536 1.09744L6.1387 5.41011L10.452 1.09678C10.4982 1.04904 10.5534 1.01098 10.6144 0.984805C10.6754 0.958629 10.741 0.944868 10.8074 0.944322C10.8738 0.943777 10.9396 0.956459 11.0011 0.981628C11.0625 1.0068 11.1183 1.04395 11.1652 1.09092C11.2122 1.13789 11.2493 1.19373 11.2744 1.25519C11.2995 1.31665 11.3121 1.3825 11.3115 1.44888C11.3109 1.51527 11.2971 1.58088 11.2708 1.64187C11.2446 1.70286 11.2065 1.75801 11.1587 1.80411L6.84603 6.11744L11.1594 10.4308C11.2439 10.5155 11.2953 10.6278 11.3041 10.7472C11.3129 10.8666 11.2786 10.9852 11.2074 11.0814L11.1587 11.1374C11.074 11.2221 10.9618 11.2736 10.8424 11.2825C10.723 11.2915 10.6043 11.2573 10.508 11.1861L10.452 11.1374L6.1387 6.82478L1.82536 11.1381C1.73102 11.2291 1.60469 11.2795 1.47359 11.2783C1.3425 11.2771 1.21711 11.2244 1.12445 11.1317C1.03179 11.0389 0.979268 10.9135 0.978191 10.7824C0.977114 10.6513 1.02757 10.525 1.1187 10.4308L5.43136 6.11744L1.11803 1.80411C1.03345 1.71937 0.982088 1.60709 0.97328 1.48769C0.964471 1.36828 0.998801 1.24968 1.07003 1.15344Z" fill="white"/>
</svg>
