<svg width="23" height="28" viewBox="0 0 23 28" fill="none" xmlns="http://www.w3.org/2000/svg">
<path d="M22.1863 11.8798C22.1863 17.9573 17.2594 22.8842 11.1819 22.8842C5.10433 22.8842 0.17749 17.9573 0.17749 11.8798C0.17749 5.8022 5.10433 0.875366 11.1819 0.875366C17.2594 0.875366 22.1863 5.8022 22.1863 11.8798ZM7.41891 11.8798C7.41891 13.958 9.10365 15.6427 11.1819 15.6427C13.2601 15.6427 14.9449 13.958 14.9449 11.8798C14.9449 9.80153 13.2601 8.11679 11.1819 8.11679C9.10365 8.11679 7.41891 9.80153 7.41891 11.8798Z" fill="black"/>
<path d="M10.8555 27.5027L8.68885 22.4663H13.073L10.8555 27.5027Z" fill="black"/>
</svg>
