<svg width="14" height="16" viewBox="0 0 14 16" fill="none" xmlns="http://www.w3.org/2000/svg">
<path d="M13.0657 6.77588C13.0657 10.2978 10.2106 13.153 6.6886 13.153C3.16664 13.153 0.311523 10.2978 0.311523 6.77588C0.311523 3.25392 3.16664 0.398804 6.6886 0.398804C10.2106 0.398804 13.0657 3.25392 13.0657 6.77588ZM4.50795 6.77588C4.50795 7.98022 5.48426 8.95653 6.6886 8.95653C7.89294 8.95653 8.86925 7.98022 8.86925 6.77588C8.86925 5.57154 7.89294 4.59523 6.6886 4.59523C5.48426 4.59523 4.50795 5.57154 4.50795 6.77588Z" fill="white"/>
<path d="M6.49948 15.8294L5.24388 12.9108H7.7845L6.49948 15.8294Z" fill="white"/>
</svg>
