<svg width="31" height="30" viewBox="0 0 31 30" fill="none" xmlns="http://www.w3.org/2000/svg">
<circle cx="15.3066" cy="15" r="15" fill="#D6CAFF"/>
<rect x="0.306641" width="30" height="30" rx="5.34642" fill="#F3E3FF"/>
<g clip-path="url(#clip0_824_10327)">
<path d="M22.5762 8.36295C22.3841 8.46088 22.2109 8.66052 20.0036 11.3274C18.704 12.9019 17.6004 14.2391 17.5514 14.3031L17.4648 14.4161L16.9676 13.4292C16.6964 12.883 16.4741 12.431 16.4741 12.4235C16.4741 12.416 16.5495 12.3821 16.6399 12.3482C17.0015 12.2088 17.2538 11.7869 17.2162 11.3839C17.1823 11.0147 16.9902 10.7473 16.6436 10.5853C16.4591 10.5025 16.4252 10.4987 15.3064 10.4987C14.1802 10.4987 14.1538 10.4987 13.9617 10.5891C13.5662 10.7661 13.359 11.124 13.3967 11.5534L13.4193 11.7944L12.2252 11.8057L11.0312 11.817L10.8315 11.9225C10.4586 12.1184 10.3833 12.2352 9.65255 13.6891C9.27965 14.4312 8.97077 15.0376 8.96701 15.0376C8.89167 15.0376 6.884 15.4595 6.76723 15.5009C6.22482 15.6893 5.80671 16.1676 5.70124 16.7326C5.67864 16.8419 5.66357 17.5274 5.66357 18.2657V19.6029L5.77281 19.7121L5.88205 19.8214H6.7484H7.61475L7.65995 20.0172C7.84075 20.8083 8.53383 21.4976 9.32485 21.6859C10.0255 21.8516 10.8014 21.6445 11.3438 21.1548C11.6866 20.8459 11.9051 20.4693 12.0294 19.9796L12.0708 19.8214H14.8394C17.1484 19.8214 17.623 19.8138 17.7096 19.7686C17.7887 19.7272 17.913 19.5125 18.2633 18.8081L18.7153 17.9003H18.9489H19.1862L19.0091 18.115C18.6965 18.503 18.5345 18.9701 18.5308 19.5012C18.527 20.1189 18.7379 20.6237 19.1824 21.0682C19.6721 21.5578 20.2032 21.765 20.8812 21.7311C21.6572 21.6934 22.2937 21.313 22.7005 20.6425C23.1149 19.957 23.1187 19.0567 22.7081 18.3712C22.6327 18.2469 22.5197 18.0887 22.4519 18.0209L22.3352 17.9003H22.58H22.8211L23.2806 18.8157C23.6385 19.5351 23.759 19.7423 23.8381 19.7762C23.8946 19.8025 24.1055 19.8214 24.3315 19.8214C24.7195 19.8214 24.7308 19.8176 24.8401 19.7121L24.9493 19.6029V17.7346V15.8701L24.8589 15.7646L24.7685 15.6591L22.2824 15.6403L19.7964 15.6215L21.4952 13.1919C22.4331 11.8547 23.2279 10.7209 23.2656 10.6682C23.3258 10.5816 23.3296 10.623 23.3296 11.7417V12.9094L23.0923 13.0601C22.7495 13.2823 22.5762 13.4518 22.4783 13.6627C22.2372 14.175 22.5084 14.7852 23.0433 14.9434C23.2693 15.0112 24.0867 15.0188 24.275 14.9547C24.6894 14.8154 24.9493 14.4387 24.9493 13.9754V13.7193H24.6291H24.3089V13.9302C24.3089 14.111 24.2939 14.1524 24.1997 14.2504C24.0905 14.3558 24.0792 14.3596 23.6874 14.3596C23.2354 14.3596 23.0848 14.3106 23.0433 14.1449C22.9981 13.9641 23.0697 13.8624 23.4049 13.6364C23.582 13.5158 23.7816 13.3765 23.8494 13.3237L23.9699 13.2258V11.1051V8.98069L23.8645 8.78105C23.6159 8.30268 23.0546 8.12187 22.5762 8.36295ZM23.2317 8.99576C23.3108 9.07486 23.3296 9.13136 23.3296 9.2745C23.3296 9.44777 23.2844 9.51934 21.1712 12.5365L19.0091 15.6215L18.5421 15.6328L18.0712 15.6441L17.9281 15.3465C17.849 15.1807 17.7925 15.0301 17.8075 15.0075C17.913 14.838 22.7533 9.01459 22.8324 8.96562C22.9793 8.87146 23.1149 8.88276 23.2317 8.99576ZM16.493 11.252C16.6135 11.3688 16.6135 11.5345 16.4967 11.6739L16.4063 11.7794H15.3064H14.2065L14.1161 11.6739C13.9994 11.5345 13.9994 11.3688 14.1199 11.252L14.2103 11.1579H15.3064H16.4026L16.493 11.252ZM14.3271 15.8098V19.181H13.2008H12.0746L12.0294 18.9814C11.9352 18.5821 11.7393 18.2431 11.4116 17.9192C10.9521 17.4634 10.4662 17.26 9.84466 17.26C9.32485 17.26 8.77867 17.4521 8.4359 17.7572C8.34549 17.8363 8.25886 17.9003 8.24756 17.9003C8.23626 17.9003 8.22496 17.6555 8.22496 17.3542C8.22496 16.5744 8.28523 16.6196 7.22677 16.6196C6.7823 16.6196 6.41692 16.6046 6.41692 16.5895C6.41692 16.5179 6.69943 16.2354 6.8388 16.1639C6.92543 16.1187 7.47161 15.9906 8.11949 15.8625C8.74477 15.7345 9.29471 15.6177 9.34368 15.5989C9.40771 15.5763 9.58852 15.2485 10.1121 14.2014C10.4888 13.448 10.8353 12.7776 10.888 12.7098C11.099 12.431 11.0387 12.4386 12.7752 12.4386H14.3271V15.8098ZM16.5495 14.0206C16.9826 14.8907 17.3405 15.6102 17.3405 15.6215C17.3405 15.6328 17.0806 15.6403 16.7604 15.6403H16.1803L15.6605 14.0846C15.378 13.2333 15.1369 12.5101 15.1256 12.4838C15.1143 12.4499 15.1897 12.4386 15.4345 12.4386H15.7584L16.5495 14.0206ZM15.2349 14.838C15.3629 15.2297 15.4759 15.5687 15.4872 15.5913C15.4985 15.629 15.4345 15.6403 15.2349 15.6403H14.9674V14.8869C14.9674 14.4726 14.975 14.1336 14.9825 14.1336C14.99 14.1336 15.103 14.45 15.2349 14.838ZM24.3089 17.7346C24.3089 19.0982 24.3052 19.1848 24.2449 19.1735C24.1997 19.166 24.0227 18.8609 23.7213 18.2619C23.4727 17.7685 23.2354 17.3391 23.1978 17.3127C23.0923 17.2336 18.4479 17.2374 18.3387 17.3127C18.2972 17.3429 18.0599 17.776 17.8113 18.2732L17.3593 19.181L16.1728 19.1735L14.9863 19.1622L14.975 17.7685C14.9712 17.0038 14.975 16.3522 14.9863 16.3296C14.9976 16.2919 15.9618 16.2806 19.657 16.2806H24.3089V17.7346ZM7.58461 17.5802V17.9003H6.94427H6.30392V17.5802V17.26H6.94427H7.58461V17.5802ZM10.2402 17.9531C11.3212 18.2393 11.7808 19.4899 11.1479 20.4127C10.6093 21.1962 9.46798 21.3243 8.77114 20.684C8.36809 20.311 8.18352 19.7875 8.26263 19.2564C8.40576 18.3335 9.34745 17.712 10.2402 17.9531ZM21.1637 17.9531C22.2109 18.2318 22.7005 19.4522 22.1242 20.3487C21.5894 21.1849 20.4405 21.3431 19.7022 20.6877C19.254 20.2884 19.0581 19.5841 19.2464 19.0191C19.5139 18.2092 20.3614 17.7384 21.1637 17.9531ZM7.71268 18.7931C7.66371 18.9362 7.62228 19.0793 7.62228 19.1132C7.62228 19.1735 7.56578 19.181 6.9631 19.181H6.30392V18.8609V18.5407H7.04973H7.79932L7.71268 18.7931Z" fill="#5945A6"/>
<path d="M11.5589 13.1696C11.4383 13.2902 10.4854 15.2037 10.4854 15.3242C10.4854 15.3807 10.5306 15.4674 10.5946 15.5314L10.7038 15.6406H12.0674C13.495 15.6406 13.6042 15.6293 13.6645 15.4711C13.6758 15.4372 13.6871 14.9249 13.6871 14.3373V13.2638L13.5929 13.1734L13.5025 13.0792H12.5759H11.6493L11.5589 13.1696ZM13.0467 14.3599V15.0003H12.1992C11.7321 15.0003 11.3517 14.9927 11.3517 14.9814C11.3517 14.9701 11.4911 14.6839 11.6606 14.3411L11.9732 13.7196H12.5081H13.0467V14.3599Z" fill="#5945A6"/>
<path d="M12.4067 16.6012V16.9214H13.0471H13.6874V16.6012V16.281H13.0471H12.4067V16.6012Z" fill="#5945A6"/>
<path d="M9.44922 18.6313C9.23828 18.7255 9.03488 18.9364 8.95201 19.1399C8.87667 19.3131 8.87667 19.6898 8.95201 19.8631C9.27218 20.6277 10.3834 20.6503 10.7073 19.897C11.0614 19.0758 10.2478 18.2584 9.44922 18.6313ZM10.0519 19.2755C10.2063 19.4261 10.1762 19.671 9.98786 19.7689C9.84473 19.8442 9.67146 19.8066 9.59235 19.686C9.38518 19.3659 9.78823 19.008 10.0519 19.2755Z" fill="#5945A6"/>
<path d="M20.3916 18.6201C19.5893 18.9817 19.642 20.1306 20.4782 20.4093C20.9453 20.5637 21.4689 20.3189 21.661 19.8631C21.7363 19.6899 21.7363 19.3132 21.661 19.1399C21.4576 18.654 20.8587 18.4054 20.3916 18.6201ZM20.9754 19.2642C21.16 19.4224 21.0809 19.7501 20.8474 19.8029C20.7231 19.8292 20.5272 19.7464 20.4895 19.6522C20.3652 19.3207 20.7155 19.042 20.9754 19.2642Z" fill="#5945A6"/>
</g>
<defs>
<clipPath id="clip0_824_10327">
<rect width="19.2857" height="19.2857" fill="white" transform="translate(5.66357 5.35718)"/>
</clipPath>
</defs>
</svg>
